#!OML:ASF Y:\EmotionMaleHayes\Project 1\Capture day 1\Session 1\Male1.ASF
:FULLY-SPECIFIED
:DEGREES
873
root 43.3799 17.0186 -0.93989 917.897 99.9727 923.63
lowerback 2.94049 3.91414 -5.6904
upperback -0.226092 5.01019 -1.52994
thorax -2.22813 2.56538 1.33986
lowerneck -14.9289 13.1037 14.7248
upperneck 19.4639 15.9985 -5.09278
head 10.2805 8.02779 -1.77865
rclavicle 3.41164e-014 -2.34566e-014
rhumerus -39.5338 3.23996 -88.4428
rradius 28.8211
rwrist 7.19546
rhand -8.03508 -32.1314
rfingers 7.12502
rthumb 17.8751 -61.3299
lclavicle 3.41164e-014 -2.34566e-014
lhumerus -32.8719 -14.5055 87.1975
lradius 32.0959
lwrist -3.49776
lhand -14.2125 -22.566
lfingers 7.12502
lthumb 11.9242 7.07437
rfemur 16.9116 5.15748 9.89586
rtibia 34.9818
rfoot 3.14775 5.90982
rtoes 15.4926
lfemur 6.78969 7.65943 -22.051
ltibia 2.43578
lfoot -5.1515 5.82467
ltoes 10.981
874
root 43.4608 17.0123 -0.970457 920.24 99.9579 926.153
lowerback 2.95434 3.85607 -5.88929
upperback -0.194176 4.92695 -1.68081
thorax -2.20072 2.52559 1.30015
lowerneck -13.8649 13.0204 15.5161
upperneck 18.7088 16.0329 -5.9926
head 9.97629 8.03086 -2.26651
rclavicle 4.5969e-015 -3.18055e-015
rhumerus -39.695 1.87477 -87.5273
rradius 28.3607
rwrist 7.55224
rhand -8.08541 -32.2716
rfingers 7.12502
rthumb 17.8267 -61.4745
lclavicle 4.5969e-015 -3.18055e-015
lhumerus -32.6033 -14.9276 87.2238
lradius 32.4093
lwrist -2.83881
lhand -14.5323 -22.5731
lfingers 7.12502
lthumb 11.6158 7.08497
rfemur 16.424 4.61753 8.87855
rtibia 36.2509
rfoot 4.07263 6.15675
rtoes 12.9548
lfemur 7.33581 7.89756 -22.7048
ltibia 2.24509
lfoot -5.20025 5.3507
ltoes 10.2487
875
root 43.5153 17.0067 -0.983542 923.675 100.153 929.812
lowerback 3.22331 3.8534 -6.64125
upperback -0.151706 4.878 -1.8244
thorax -2.35485 2.5136 1.54962
lowerneck -14.1503 13.071 15.4247
upperneck 18.9967 16.0618 -5.82943
head 10.1106 8.04825 -2.16996
rclavicle 2.2736e-014 -2.26615e-014
rhumerus -39.7721 0.756756 -86.663
rradius 28.0107
rwrist 7.65401
rhand -8.27559 -32.4859
rfingers 7.12502
rthumb 17.6437 -61.7054
lclavicle 2.2736e-014 -2.26615e-014
lhumerus -32.1124 -15.0861 87.1704
lradius 32.6135
lwrist -2.73007
lhand -14.6016 -22.5567
lfingers 7.12502
lthumb 11.549 7.10513
rfemur 15.7622 4.54123 7.88418
rtibia 37.8506
rfoot 4.78634 5.76885
rtoes 16.9971
lfemur 7.64356 8.08378 -23.4623
ltibia 2.34602
lfoot -5.43031 5.09339
ltoes 10.4696
876
root 43.587 17.0088 -1.00333 927.868 100.461 934.012
lowerback 3.00685 3.8005 -7.46187
upperback -0.132726 4.80136 -2.03025
thorax -2.2577 2.48359 1.80858
lowerneck -14.1581 13.0636 15.3987
upperneck 19.0326 16.0621 -5.83879
head 10.1233 8.04617 -2.16835
rclavicle 2.92462e-014 -3.89618e-014
rhumerus -39.9516 -0.249341 -85.8487
rradius 27.8433
rwrist 7.81432
rhand -8.19269 -32.7907
rfingers 7.12502
rthumb 17.7234 -62.0029
lclavicle 2.92462e-014 -3.89618e-014
lhumerus -31.6189 -14.9448 86.9323
lradius 32.9058
lwrist -3.44857
lhand -14.3806 -22.4386
lfingers 7.12502
lthumb 11.7621 7.21112
rfemur 15.2584 4.29587 6.61325
rtibia 38.7083
rfoot 5.626 5.57679
rtoes 19.2343
lfemur 7.85218 8.41577 -24.5166
ltibia 2.27706
lfoot -5.53969 4.72285
ltoes 10.6172
877
root 43.6509 17.0006 -1.02224 928.7 100.634 935.055
lowerback 3.10762 3.78291 -7.73746
upperback -0.0748012 4.76269 -2.05085
thorax -2.27143 2.46699 1.93592
lowerneck -14.0689 13.0843 15.2892
upperneck 19.0252 16.1154 -5.76429
head 10.0935 8.07419 -2.12429
rclavicle -5.26779e-015 6.08281e-014
rhumerus -40.1162 -0.949905 -85.1653
rradius 27.7035
rwrist 7.74942
rhand -8.03062 -33.2597
rfingers 7.12502
rthumb 17.8794 -62.4578
lclavicle -5.26779e-015 6.08281e-014
lhumerus -31.2073 -14.9617 86.8014
lradius 33.202
lwrist -3.71895
lhand -14.4967 -22.4059
lfingers 7.12502
lthumb 11.6502 7.25019
rfemur 15.3736 4.55638 6.3572
rtibia 39.1653
rfoot 6.61465 5.07755
rtoes 22.1522
lfemur 8.31623 8.68612 -24.7943
ltibia 2.24242
lfoot -5.67185 4.49876
ltoes 10.5856
878
root 43.7014 16.9995 -1.03737 927.093 100.518 933.416
lowerback 3.08014 3.73925 -7.43261
upperback -0.0650508 4.71746 -1.95822
thorax -2.22491 2.43889 1.87023
lowerneck -14.1065 13.1316 15.2519
upperneck 19.1991 16.1691 -5.62974
head 10.1529 8.11091 -2.05747
rclavicle 4.46023e-014 -9.14409e-015
rhumerus -40.1559 -1.5958 -84.5727
rradius 27.4377
rwrist 7.72971
rhand -8.16982 -33.3377
rfingers 7.12502
rthumb 17.7454 -62.548
lclavicle 4.46023e-014 -9.14409e-015
lhumerus -30.7113 -15.1504 86.7036
lradius 33.3448
lwrist -3.5136
lhand -14.6803 -22.5214
lfingers 7.12502
lthumb 11.4731 7.14461
rfemur 14.6054 4.40185 6.66586
rtibia 40.3402
rfoot 7.05668 4.82425
rtoes 18.6446
lfemur 8.4316 8.88153 -24.376
ltibia 2.42132
lfoot -5.91095 4.29247
ltoes 10.6344
879
root 43.7479 16.9973 -1.05144 929.477 100.684 935.85
lowerback 3.33639 3.67407 -7.99529
upperback -0.205045 4.57673 -2.06983
thorax -2.53708 2.38851 2.04831
lowerneck -14.0911 13.1799 15.2924
upperneck 19.4377 16.2522 -5.60758
head 10.2468 8.15813 -2.03547
rclavicle -3.38431e-014 3.02153e-014
rhumerus -40.5275 -2.20233 -83.9834
rradius 27.3566
rwrist 7.90629
rhand -8.27049 -33.1864
rfingers 7.12502
rthumb 17.6486 -62.4054
lclavicle -3.38431e-014 3.02153e-014
lhumerus -30.5111 -15.1287 86.5823
lradius 33.5824
lwrist -3.57286
lhand -14.4565 -22.5492
lfingers 7.12502
lthumb 11.6889 7.10472
rfemur 13.7392 4.1607 5.9159
rtibia 41.8022
rfoot 7.73317 4.35404
rtoes 19.1702
lfemur 8.54818 9.05965 -24.9643
ltibia 2.52902
lfoot -6.06857 4.04821
ltoes 10.4527
